<?xml version="1.0" encoding="UTF-8" standalone="no"?>
<svg
   xmlns:dc="http://purl.org/dc/elements/1.1/"
   xmlns:cc="http://creativecommons.org/ns#"
   xmlns:rdf="http://www.w3.org/1999/02/22-rdf-syntax-ns#"
   xmlns:svg="http://www.w3.org/2000/svg"
   xmlns="http://www.w3.org/2000/svg"
   xmlns:sodipodi="http://sodipodi.sourceforge.net/DTD/sodipodi-0.dtd"
   xmlns:inkscape="http://www.inkscape.org/namespaces/inkscape"
   version="1.1"
   id="svg2"
   xml:space="preserve"
   width="447.98666"
   height="313.58667"
   viewBox="0 0 447.98666 313.58667"
   sodipodi:docname="m_17.eps"><metadata
     id="metadata8"><rdf:RDF><cc:Work
         rdf:about=""><dc:format>image/svg+xml</dc:format><dc:type
           rdf:resource="http://purl.org/dc/dcmitype/StillImage" /></cc:Work></rdf:RDF></metadata><defs
     id="defs6" /><sodipodi:namedview
     pagecolor="#ffffff"
     bordercolor="#666666"
     borderopacity="1"
     objecttolerance="10"
     gridtolerance="10"
     guidetolerance="10"
     inkscape:pageopacity="0"
     inkscape:pageshadow="2"
     inkscape:window-width="640"
     inkscape:window-height="480"
     id="namedview4" /><g
     id="g10"
     inkscape:groupmode="layer"
     inkscape:label="ink_ext_XXXXXX"
     transform="matrix(1.3333333,0,0,-1.3333333,0,313.58667)"><g
       id="g12"
       transform="scale(0.1)"><path
         d="M 0,0 H 3359.86 V 2351.9 H 0 Z"
         style="fill:#fcdc14;fill-opacity:1;fill-rule:nonzero;stroke:none"
         id="path14" /><path
         d="M 3224.24,105.391 H 2331.6 v 551.847 h 892.64 V 592.32 105.391"
         style="fill:#e9cc18;fill-opacity:1;fill-rule:nonzero;stroke:none"
         id="path16" /><path
         d="M 2774.98,1371.48 H 2148.3 v 63.57 h 561.17 v 751.58 h 65.51 v -66.39 -748.76"
         style="fill:#e9cc18;fill-opacity:1;fill-rule:nonzero;stroke:none"
         id="path18" /><path
         d="m 3076.11,830.078 h -369.94 v 1.293 h -260.25 v 126.051 242.688 h -0.37 v 68.82 h 632.15 v -68.82 h -1.59 V 830.078"
         style="fill:#e9cc18;fill-opacity:1;fill-rule:nonzero;stroke:none"
         id="path20" /><path
         d="M 1644.16,99.9297 H 760.426 V 337.699 H 1644.16 V 99.9297"
         style="fill:#e9cc18;fill-opacity:1;fill-rule:nonzero;stroke:none"
         id="path22" /><path
         d="M 3158.73,168.961 H 2266.1 V 720.82 h 892.63 V 168.961"
         style="fill:#ffffff;fill-opacity:1;fill-rule:nonzero;stroke:none"
         id="path24" /><path
         d="M 3094.32,418.449 H 2313.7 v 196.102 h 780.62 V 418.449"
         style="fill:#99d9d2;fill-opacity:1;fill-rule:nonzero;stroke:none"
         id="path26" /><path
         d="M 2727.81,348.52 H 2313.7 v 30.929 h 414.11 V 348.52"
         style="fill:#99d9d2;fill-opacity:1;fill-rule:nonzero;stroke:none"
         id="path28" /><path
         d="m 3086.7,348.52 h -295.41 v 30.929 H 3086.7 V 348.52"
         style="fill:#99d9d2;fill-opacity:1;fill-rule:nonzero;stroke:none"
         id="path30" /><path
         d="m 2939,289.859 h -625.3 v 30.903 H 2939 v -30.903"
         style="fill:#99d9d2;fill-opacity:1;fill-rule:nonzero;stroke:none"
         id="path32" /><path
         d="M 2517.56,231.148 H 2313.7 v 30.973 h 203.86 v -30.973"
         style="fill:#99d9d2;fill-opacity:1;fill-rule:nonzero;stroke:none"
         id="path34" /><path
         d="M 3073.57,231.148 H 2558.7 v 30.973 h 514.87 v -30.973"
         style="fill:#99d9d2;fill-opacity:1;fill-rule:nonzero;stroke:none"
         id="path36" /><path
         d="M 3158.73,655.891 H 2266.1 v 64.929 h 892.63 v -64.929"
         style="fill:#0a536e;fill-opacity:1;fill-rule:nonzero;stroke:none"
         id="path38" /><path
         d="m 2348.88,688.34 c 0,-8.078 -6.55,-14.629 -14.62,-14.629 -8.1,0 -14.67,6.551 -14.67,14.629 0,8.101 6.57,14.66 14.67,14.66 8.07,0 14.62,-6.559 14.62,-14.66"
         style="fill:#e7e5e6;fill-opacity:1;fill-rule:nonzero;stroke:none"
         id="path40" /><path
         d="m 2398.25,688.34 c 0,-8.078 -6.57,-14.629 -14.7,-14.629 -8.08,0 -14.62,6.551 -14.62,14.629 0,8.101 6.54,14.66 14.62,14.66 8.13,0 14.7,-6.559 14.7,-14.66"
         style="fill:#e7e5e6;fill-opacity:1;fill-rule:nonzero;stroke:none"
         id="path42" /><path
         d="m 2447.56,688.34 c 0,-8.078 -6.56,-14.629 -14.65,-14.629 -8.1,0 -14.69,6.551 -14.69,14.629 0,8.101 6.59,14.66 14.69,14.66 8.09,0 14.65,-6.559 14.65,-14.66"
         style="fill:#e7e5e6;fill-opacity:1;fill-rule:nonzero;stroke:none"
         id="path44" /><path
         d="m 1797.36,1435.05 h 912.109 v 815.145 H 1797.36 Z"
         style="fill:#ffffff;fill-opacity:1;fill-rule:nonzero;stroke:none"
         id="path46" /><path
         d="m 2709.47,2183.81 h -912.11 v 66.39 h 912.11 v -66.39"
         style="fill:#0a536e;fill-opacity:1;fill-rule:nonzero;stroke:none"
         id="path48" /><path
         d="m 1881.97,2217.01 c 0,-8.28 -6.71,-14.99 -14.99,-14.99 -8.27,0 -14.97,6.71 -14.97,14.99 0,8.27 6.7,14.95 14.97,14.95 8.28,0 14.99,-6.68 14.99,-14.95"
         style="fill:#e7e5e6;fill-opacity:1;fill-rule:nonzero;stroke:none"
         id="path50" /><path
         d="m 1932.4,2217.01 c 0,-8.28 -6.72,-14.99 -15.03,-14.99 -8.29,0 -14.98,6.71 -14.98,14.99 0,8.27 6.69,14.95 14.98,14.95 8.31,0 15.03,-6.68 15.03,-14.95"
         style="fill:#e7e5e6;fill-opacity:1;fill-rule:nonzero;stroke:none"
         id="path52" /><path
         d="m 1982.73,2217.01 c 0,-8.28 -6.69,-14.99 -14.96,-14.99 -8.23,0 -14.98,6.71 -14.98,14.99 0,8.27 6.75,14.95 14.98,14.95 8.27,0 14.96,-6.68 14.96,-14.95"
         style="fill:#e7e5e6;fill-opacity:1;fill-rule:nonzero;stroke:none"
         id="path54" /><path
         d="M 2564.79,2093.07 H 1865.8 v 33.63 h 698.99 v -33.63"
         style="fill:#99d9d2;fill-opacity:1;fill-rule:nonzero;stroke:none"
         id="path56" /><path
         d="M 2101.26,2029.28 H 1865.8 v 33.61 h 235.46 v -33.61"
         style="fill:#0a536e;fill-opacity:1;fill-rule:nonzero;stroke:none"
         id="path58" /><path
         d="M 2057.25,1965.49 H 1865.8 v 33.62 h 191.45 v -33.62"
         style="fill:#99d9d2;fill-opacity:1;fill-rule:nonzero;stroke:none"
         id="path60" /><path
         d="M 2101.26,1901.7 H 1865.8 v 33.61 h 235.46 v -33.61"
         style="fill:#99d9d2;fill-opacity:1;fill-rule:nonzero;stroke:none"
         id="path62" /><path
         d="M 2101.26,1837.93 H 1865.8 v 33.61 h 235.46 v -33.61"
         style="fill:#99d9d2;fill-opacity:1;fill-rule:nonzero;stroke:none"
         id="path64" /><path
         d="m 2619.9,2029.28 h -212.96 v 33.61 h 212.96 v -33.61"
         style="fill:#99d9d2;fill-opacity:1;fill-rule:nonzero;stroke:none"
         id="path66" /><path
         d="m 2580.1,1965.49 h -173.16 v 33.62 h 173.16 v -33.62"
         style="fill:#99d9d2;fill-opacity:1;fill-rule:nonzero;stroke:none"
         id="path68" /><path
         d="m 2619.9,1901.7 h -212.96 v 33.61 h 212.96 v -33.61"
         style="fill:#0a536e;fill-opacity:1;fill-rule:nonzero;stroke:none"
         id="path70" /><path
         d="m 2619.9,1837.93 h -212.96 v 33.61 h 212.96 v -33.61"
         style="fill:#99d9d2;fill-opacity:1;fill-rule:nonzero;stroke:none"
         id="path72" /><path
         d="m 2531.78,1767.52 h -663.59 v 33.62 h 663.59 v -33.62"
         style="fill:#99d9d2;fill-opacity:1;fill-rule:nonzero;stroke:none"
         id="path74" /><path
         d="m 2101.26,1703.71 h -233.07 v 33.61 h 233.07 v -33.61"
         style="fill:#0a536e;fill-opacity:1;fill-rule:nonzero;stroke:none"
         id="path76" /><path
         d="m 2619.9,1703.71 h -483.02 v 33.61 h 483.02 v -33.61"
         style="fill:#99d9d2;fill-opacity:1;fill-rule:nonzero;stroke:none"
         id="path78" /><path
         d="m 1868.19,1639.96 h 594.707 v 33.6016 H 1868.19 Z"
         style="fill:#99d9d2;fill-opacity:1;fill-rule:nonzero;stroke:none"
         id="path80" /><path
         d="m 2619.9,1576.17 h -191.26 v 33.6 h 191.26 v -33.6"
         style="fill:#0a536e;fill-opacity:1;fill-rule:nonzero;stroke:none"
         id="path82" /><path
         d="m 1868.19,1576.17 h 506.719 v 33.6016 H 1868.19 Z"
         style="fill:#99d9d2;fill-opacity:1;fill-rule:nonzero;stroke:none"
         id="path84" /><path
         d="m 1868.19,1512.37 h 663.59 v 33.625 h -663.59 z"
         style="fill:#99d9d2;fill-opacity:1;fill-rule:nonzero;stroke:none"
         id="path86" /><path
         d="m 2374.91,1842.63 h -242.99 v 217.13 h 242.99 v -217.13"
         style="fill:#99d9d2;fill-opacity:1;fill-rule:nonzero;stroke:none"
         id="path88" /><path
         d="m 2888.87,2039.24 h 220.86"
         style="fill:#ffffff;fill-opacity:1;fill-rule:nonzero;stroke:none"
         id="path90" /><path
         d="m 3109.73,2034.24 h -220.86 c -2.77,0 -5,2.24 -5,5 0,2.77 2.23,5 5,5 h 220.86 c 2.76,0 5,-2.23 5,-5 0,-2.76 -2.24,-5 -5,-5"
         style="fill:#1d1d1b;fill-opacity:1;fill-rule:nonzero;stroke:none"
         id="path92" /><path
         d="m 2938.01,1979.24 h 220.84"
         style="fill:#ffffff;fill-opacity:1;fill-rule:nonzero;stroke:none"
         id="path94" /><path
         d="m 3158.85,1974.24 h -220.84 c -2.77,0 -5,2.24 -5,5 0,2.77 2.23,5 5,5 h 220.84 c 2.76,0 5,-2.23 5,-5 0,-2.76 -2.24,-5 -5,-5"
         style="fill:#1d1d1b;fill-opacity:1;fill-rule:nonzero;stroke:none"
         id="path96" /><path
         d="m 3132.52,2039.24 h 60.02"
         style="fill:#ffffff;fill-opacity:1;fill-rule:nonzero;stroke:none"
         id="path98" /><path
         d="m 3192.54,2034.24 h -60.02 c -2.76,0 -5,2.24 -5,5 0,2.77 2.24,5 5,5 h 60.02 c 2.76,0 5,-2.23 5,-5 0,-2.76 -2.24,-5 -5,-5"
         style="fill:#1d1d1b;fill-opacity:1;fill-rule:nonzero;stroke:none"
         id="path100" /><path
         d="m 3040.37,2109.88 h 60.02"
         style="fill:#ffffff;fill-opacity:1;fill-rule:nonzero;stroke:none"
         id="path102" /><path
         d="m 3100.39,2104.88 h -60.02 c -2.76,0 -5,2.23 -5,5 0,2.76 2.24,5 5,5 h 60.02 c 2.76,0 5,-2.24 5,-5 0,-2.77 -2.24,-5 -5,-5"
         style="fill:#1d1d1b;fill-opacity:1;fill-rule:nonzero;stroke:none"
         id="path104" /><path
         d="M 1625.49,2169.31 H 1381.1"
         style="fill:#ffffff;fill-opacity:1;fill-rule:nonzero;stroke:none"
         id="path106" /><path
         d="M 1625.49,2164.31 H 1381.1 c -2.77,0 -5,2.24 -5,5 0,2.76 2.23,5 5,5 h 244.39 c 2.77,0 5,-2.24 5,-5 0,-2.76 -2.23,-5 -5,-5"
         style="fill:#1d1d1b;fill-opacity:1;fill-rule:nonzero;stroke:none"
         id="path108" /><path
         d="M 1729.38,2088.39 H 1581.49"
         style="fill:#ffffff;fill-opacity:1;fill-rule:nonzero;stroke:none"
         id="path110" /><path
         d="m 1729.38,2083.39 h -147.89 c -2.76,0 -5,2.24 -5,5 0,2.77 2.24,5 5,5 h 147.89 c 2.77,0 5,-2.23 5,-5 0,-2.76 -2.23,-5 -5,-5"
         style="fill:#1d1d1b;fill-opacity:1;fill-rule:nonzero;stroke:none"
         id="path112" /><path
         d="m 1355.87,2169.31 h -66.42"
         style="fill:#ffffff;fill-opacity:1;fill-rule:nonzero;stroke:none"
         id="path114" /><path
         d="m 1355.87,2164.31 h -66.42 c -2.77,0 -5,2.24 -5,5 0,2.76 2.23,5 5,5 h 66.42 c 2.77,0 5,-2.24 5,-5 0,-2.76 -2.23,-5 -5,-5"
         style="fill:#1d1d1b;fill-opacity:1;fill-rule:nonzero;stroke:none"
         id="path116" /><path
         d="m 1755.18,249.961 h 177.09"
         style="fill:#ffffff;fill-opacity:1;fill-rule:nonzero;stroke:none"
         id="path118" /><path
         d="m 1932.27,244.961 h -177.09 c -2.77,0 -5,2.23 -5,5 0,2.758 2.23,5 5,5 h 177.09 c 2.76,0 5,-2.242 5,-5 0,-2.77 -2.24,-5 -5,-5"
         style="fill:#1d1d1b;fill-opacity:1;fill-rule:nonzero;stroke:none"
         id="path120" /><path
         d="m 3125.33,1476.1 h -122.2"
         style="fill:#ffffff;fill-opacity:1;fill-rule:nonzero;stroke:none"
         id="path122" /><path
         d="m 3125.33,1471.1 h -122.2 c -2.76,0 -5,2.24 -5,5 0,2.76 2.24,5 5,5 h 122.2 c 2.77,0 5,-2.24 5,-5 0,-2.76 -2.23,-5 -5,-5"
         style="fill:#1d1d1b;fill-opacity:1;fill-rule:nonzero;stroke:none"
         id="path124" /><path
         d="m 3093.93,1624.51 h -122.2"
         style="fill:#ffffff;fill-opacity:1;fill-rule:nonzero;stroke:none"
         id="path126" /><path
         d="m 3093.93,1619.51 h -122.2 c -2.77,0 -5,2.23 -5,5 0,2.76 2.23,5 5,5 h 122.2 c 2.76,0 5,-2.24 5,-5 0,-2.77 -2.24,-5 -5,-5"
         style="fill:#1d1d1b;fill-opacity:1;fill-rule:nonzero;stroke:none"
         id="path128" /><path
         d="m 3004.67,1531.54 h -61.1"
         style="fill:#ffffff;fill-opacity:1;fill-rule:nonzero;stroke:none"
         id="path130" /><path
         d="m 3004.67,1526.54 h -61.1 c -2.76,0 -5,2.23 -5,5 0,2.76 2.24,5 5,5 h 61.1 c 2.76,0 5,-2.24 5,-5 0,-2.77 -2.24,-5 -5,-5"
         style="fill:#1d1d1b;fill-opacity:1;fill-rule:nonzero;stroke:none"
         id="path132" /><path
         d="M 3146.04,1531.54 H 3035.21"
         style="fill:#ffffff;fill-opacity:1;fill-rule:nonzero;stroke:none"
         id="path134" /><path
         d="m 3146.04,1526.54 h -110.83 c -2.76,0 -5,2.23 -5,5 0,2.76 2.24,5 5,5 h 110.83 c 2.76,0 5,-2.24 5,-5 0,-2.77 -2.24,-5 -5,-5"
         style="fill:#1d1d1b;fill-opacity:1;fill-rule:nonzero;stroke:none"
         id="path136" /><path
         d="M 371.211,221.738 H 310.113"
         style="fill:#ffffff;fill-opacity:1;fill-rule:nonzero;stroke:none"
         id="path138" /><path
         d="m 371.211,216.738 h -61.098 c -2.765,0 -5,2.242 -5,5 0,2.774 2.235,5 5,5 h 61.098 c 2.766,0 5,-2.226 5,-5 0,-2.758 -2.234,-5 -5,-5"
         style="fill:#1d1d1b;fill-opacity:1;fill-rule:nonzero;stroke:none"
         id="path140" /><path
         d="M 490.602,270.148 H 379.781"
         style="fill:#ffffff;fill-opacity:1;fill-rule:nonzero;stroke:none"
         id="path142" /><path
         d="M 490.602,265.148 H 379.781 c -2.765,0 -5,2.243 -5,5 0,2.774 2.235,5 5,5 h 110.821 c 2.761,0 5,-2.226 5,-5 0,-2.757 -2.239,-5 -5,-5"
         style="fill:#1d1d1b;fill-opacity:1;fill-rule:nonzero;stroke:none"
         id="path144" /><path
         d="m 1894.59,303.309 h 177.1"
         style="fill:#ffffff;fill-opacity:1;fill-rule:nonzero;stroke:none"
         id="path146" /><path
         d="m 2071.69,298.309 h -177.1 c -2.76,0 -5,2.23 -5,5 0,2.761 2.24,5 5,5 h 177.1 c 2.76,0 5,-2.239 5,-5 0,-2.77 -2.24,-5 -5,-5"
         style="fill:#1d1d1b;fill-opacity:1;fill-rule:nonzero;stroke:none"
         id="path148" /><path
         d="m 1950.55,249.961 h 48.14"
         style="fill:#ffffff;fill-opacity:1;fill-rule:nonzero;stroke:none"
         id="path150" /><path
         d="m 1998.69,244.961 h -48.14 c -2.77,0 -5,2.23 -5,5 0,2.758 2.23,5 5,5 h 48.14 c 2.77,0 5,-2.242 5,-5 0,-2.77 -2.23,-5 -5,-5"
         style="fill:#1d1d1b;fill-opacity:1;fill-rule:nonzero;stroke:none"
         id="path152" /><path
         d="m 2057.05,189.961 h 93.36"
         style="fill:#ffffff;fill-opacity:1;fill-rule:nonzero;stroke:none"
         id="path154" /><path
         d="m 2150.41,184.961 h -93.36 c -2.76,0 -5,2.23 -5,5 0,2.758 2.24,5 5,5 h 93.36 c 2.76,0 5,-2.242 5,-5 0,-2.77 -2.24,-5 -5,-5"
         style="fill:#1d1d1b;fill-opacity:1;fill-rule:nonzero;stroke:none"
         id="path156" /><path
         d="m 1284.69,1809.45 h 790.4 c 40.42,0 73.21,-32.77 73.21,-73.18 V 594.59 c 0,-40.418 -32.79,-73.211 -73.21,-73.211 h -790.4 c -40.39,0 -73.18,32.793 -73.18,73.211 v 1141.68 c 0,40.41 32.79,73.18 73.18,73.18"
         style="fill:#3d3d3d;fill-opacity:1;fill-rule:evenodd;stroke:none"
         id="path158" /><path
         d="m 1284.69,1809.45 h 790.4 c 40.42,0 73.21,-32.77 73.21,-73.18 V 594.59 c 0,-40.418 -32.79,-73.211 -73.21,-73.211 h -790.4 c -40.39,0 -73.18,32.793 -73.18,73.211 v 1141.68 c 0,40.41 32.79,73.18 73.18,73.18"
         style="fill:#3d3d3d;fill-opacity:1;fill-rule:evenodd;stroke:none"
         id="path160" /><path
         d="m 1623.16,1744.31 c 4.45,0 8.09,-3.58 8.09,-8.04 0,-4.44 -3.64,-8.06 -8.09,-8.06 -4.43,0 -8.04,3.62 -8.04,8.06 0,4.46 3.61,8.04 8.04,8.04"
         style="fill:#e8e9e8;fill-opacity:1;fill-rule:evenodd;stroke:none"
         id="path162" /><path
         d="m 1663.42,1744.31 h 80.51 c 4.45,0 8.08,-3.58 8.08,-8.04 0,-4.44 -3.63,-8.06 -8.08,-8.06 h -80.51 c -4.45,0 -8.05,3.62 -8.05,8.06 0,4.46 3.6,8.04 8.05,8.04"
         style="fill:#e8e9e8;fill-opacity:1;fill-rule:evenodd;stroke:none"
         id="path164" /><path
         d="m 1679.9,620.801 c 18.44,0 33.38,-14.942 33.38,-33.352 0,-18.429 -14.94,-33.39 -33.38,-33.39 -18.42,0 -33.38,14.961 -33.38,33.39 0,18.41 14.96,33.352 33.38,33.352"
         style="fill:#e8e9e8;fill-opacity:1;fill-rule:evenodd;stroke:none"
         id="path166" /><path
         d="m 1257,653.141 h 845.809 v 1024.59 H 1257 Z"
         style="fill:#86c7e2;fill-opacity:1;fill-rule:evenodd;stroke:none"
         id="path168" /><path
         d="m 1623.16,1744.31 c 4.45,0 8.09,-3.58 8.09,-8.04 0,-4.44 -3.64,-8.06 -8.09,-8.06 -4.43,0 -8.04,3.62 -8.04,8.06 0,4.46 3.61,8.04 8.04,8.04"
         style="fill:#e8e9e8;fill-opacity:1;fill-rule:evenodd;stroke:none"
         id="path170" /><path
         d="m 1663.42,1744.31 h 80.51 c 4.45,0 8.08,-3.58 8.08,-8.04 0,-4.44 -3.63,-8.06 -8.08,-8.06 h -80.51 c -4.45,0 -8.05,3.62 -8.05,8.06 0,4.46 3.6,8.04 8.05,8.04"
         style="fill:#e8e9e8;fill-opacity:1;fill-rule:evenodd;stroke:none"
         id="path172" /><path
         d="m 1257,653.141 h 845.809 v 1024.59 H 1257 Z"
         style="fill:#86c7e2;fill-opacity:1;fill-rule:evenodd;stroke:none"
         id="path174" /><path
         d="m 1257,653.141 v 0 207.461 h 171.26 L 1257,653.141 m 314.88,381.429 v 643.16 h 530.93 l -530.93,-643.16"
         style="fill:#9ed2e8;fill-opacity:1;fill-rule:nonzero;stroke:none"
         id="path176" /><path
         d="m 2380.06,1332.51 h 632.14 v -68.82 h -632.14 v 68.82"
         style="fill:#0a536e;fill-opacity:1;fill-rule:evenodd;stroke:none"
         id="path178" /><path
         d="m 3010.61,893.66 h -369.94 v 371.9 h 369.94 v -371.9"
         style="fill:#ffffff;fill-opacity:1;fill-rule:nonzero;stroke:none"
         id="path180" /><path
         d="M 2926.48,1056.53 H 2697.4 v 22.06 h 229.08 v -22.06"
         style="fill:#99d9d2;fill-opacity:1;fill-rule:nonzero;stroke:none"
         id="path182" /><path
         d="M 2871.99,1056.53 H 2697.4 v 22.06 h 174.59 v -22.06"
         style="fill:#0a536e;fill-opacity:1;fill-rule:nonzero;stroke:none"
         id="path184" /><path
         d="M 2933.46,1104.53 H 2697.4 v 102.11 h 236.06 v -102.11"
         style="fill:#99d9d2;fill-opacity:1;fill-rule:nonzero;stroke:none"
         id="path186" /><path
         d="M 2933.46,1001.28 H 2697.4 v 29.31 h 236.06 v -29.31"
         style="fill:#99d9d2;fill-opacity:1;fill-rule:nonzero;stroke:none"
         id="path188" /><path
         d="m 2640.67,894.949 h -260.24 v 370.611 h 260.24 V 894.949"
         style="fill:#ffffff;fill-opacity:1;fill-rule:nonzero;stroke:none"
         id="path190" /><path
         d="m 2445.14,1298.16 c 0,-6.41 -5.19,-11.6 -11.59,-11.6 -6.39,0 -11.56,5.19 -11.56,11.6 0,6.39 5.17,11.52 11.56,11.52 6.4,0 11.59,-5.13 11.59,-11.52"
         style="fill:#e7e5e6;fill-opacity:1;fill-rule:nonzero;stroke:none"
         id="path192" /><path
         d="m 2484.1,1298.16 c 0,-6.41 -5.18,-11.6 -11.6,-11.6 -6.41,0 -11.58,5.19 -11.58,11.6 0,6.39 5.17,11.52 11.58,11.52 6.42,0 11.6,-5.13 11.6,-11.52"
         style="fill:#e7e5e6;fill-opacity:1;fill-rule:nonzero;stroke:none"
         id="path194" /><path
         d="m 2523.01,1298.16 c 0,-6.41 -5.18,-11.6 -11.56,-11.6 -6.37,0 -11.59,5.19 -11.59,11.6 0,6.39 5.22,11.52 11.59,11.52 6.38,0 11.56,-5.13 11.56,-11.52"
         style="fill:#e7e5e6;fill-opacity:1;fill-rule:nonzero;stroke:none"
         id="path196" /><path
         d="m 2640.67,1020.99 h -260.24 v 244.57 h 260.24 v -244.57"
         style="fill:#99d9d2;fill-opacity:1;fill-rule:nonzero;stroke:none"
         id="path198" /><path
         d="m 2583.36,1136.15 c 0,-40.22 -32.6,-72.81 -72.83,-72.81 -40.18,0 -72.83,32.59 -72.83,72.81 0,40.23 32.65,72.85 72.83,72.85 40.23,0 72.83,-32.62 72.83,-72.85"
         style="fill:#0a536e;fill-opacity:1;fill-rule:nonzero;stroke:none"
         id="path200" /><path
         d="m 2482.13,1105.84 c 0,-6.06 4.22,-8.4 9.35,-5.26 l 48.91,29.83 c 5.16,3.18 5.16,8.31 0,11.46 l -48.91,29.85 c -5.13,3.15 -9.35,0.78 -9.35,-5.26 v -60.62"
         style="fill:#ffffff;fill-opacity:1;fill-rule:nonzero;stroke:none"
         id="path202" /><path
         d="m 2933.46,950.48 h -488.32 v 29.321 h 488.32 V 950.48"
         style="fill:#99d9d2;fill-opacity:1;fill-rule:nonzero;stroke:none"
         id="path204" /><path
         d="M 922.09,163.5 H 694.926 V 401.27 H 922.09 V 163.5"
         style="fill:#0a536e;fill-opacity:1;fill-rule:nonzero;stroke:none"
         id="path206" /><path
         d="M 1578.66,163.5 H 922.09 v 237.77 h 656.57 V 163.5"
         style="fill:#ffffff;fill-opacity:1;fill-rule:nonzero;stroke:none"
         id="path208" /><path
         d="m 872.07,282.391 c 0,-35.102 -28.461,-63.563 -63.578,-63.563 -35.074,0 -63.582,28.461 -63.582,63.563 0,35.121 28.508,63.589 63.582,63.589 35.117,0 63.578,-28.468 63.578,-63.589"
         style="fill:#ffffff;fill-opacity:1;fill-rule:nonzero;stroke:none"
         id="path210" /><path
         d="m 783.699,255.93 c 0,-5.282 3.688,-7.328 8.172,-4.59 l 42.684,26.051 c 4.5,2.769 4.5,7.238 0,10 l -42.684,26.05 c -4.484,2.758 -8.172,0.688 -8.172,-4.601 v -52.91"
         style="fill:#99d9d2;fill-opacity:1;fill-rule:nonzero;stroke:none"
         id="path212" /><path
         d="M 1522.39,240.5 H 971.609 v 19.25 H 1522.39 V 240.5"
         style="fill:#0a536e;fill-opacity:1;fill-rule:nonzero;stroke:none"
         id="path214" /><path
         d="M 1283.66,240.5 H 971.609 v 19.25 H 1283.66 V 240.5"
         style="fill:#99d9d2;fill-opacity:1;fill-rule:nonzero;stroke:none"
         id="path216" /><path
         d="M 1165.74,326.512 H 975.625 V 359.5 h 190.115 v -32.988"
         style="fill:#0a536e;fill-opacity:1;fill-rule:nonzero;stroke:none"
         id="path218" /><path
         d="M 1522.39,326.512 H 1214.05 V 359.5 h 308.34 v -32.988"
         style="fill:#99d9d2;fill-opacity:1;fill-rule:nonzero;stroke:none"
         id="path220" /><path
         d="m 1304.91,250.121 c 0,-11.742 -9.51,-21.25 -21.25,-21.25 -11.74,0 -21.25,9.508 -21.25,21.25 0,11.738 9.51,21.25 21.25,21.25 11.74,0 21.25,-9.512 21.25,-21.25"
         style="fill:#99d9d2;fill-opacity:1;fill-rule:nonzero;stroke:none"
         id="path222" /><path
         d="M 930.434,485.461 H 302.125 v 63.578 H 864.938 V 1169.37 H 297.543 v 5.33 h 520.242 v 169.64 H 433.906 v 734.72 5.19 63.17 H 1062 v -68.36 h -2.95 v -73.26 h 512.83 v -119.01 -77.34 h -287.19 c -40.39,0 -73.18,-32.77 -73.18,-73.18 V 860.602 H 930.434 V 485.461"
         style="fill:#e9cc18;fill-opacity:1;fill-rule:nonzero;stroke:none"
         id="path224" /><path
         d="m 1257,860.602 h -45.49 v 875.668 c 0,40.41 32.79,73.18 73.18,73.18 h 287.19 V 1677.73 H 1257 V 860.602"
         style="fill:#3d3d3d;fill-opacity:1;fill-rule:nonzero;stroke:none"
         id="path226" /><path
         d="m 1571.88,860.602 h -143.62 l 143.62,173.968 V 860.602"
         style="fill:#7fb9d1;fill-opacity:1;fill-rule:nonzero;stroke:none"
         id="path228" /><path
         d="M 1428.26,860.602 H 1257 v 817.128 h 314.88 V 1034.57 L 1428.26,860.602"
         style="fill:#94c3d7;fill-opacity:1;fill-rule:nonzero;stroke:none"
         id="path230" /><path
         d="M 993.551,1407.91 H 368.406 v 739.92 h 625.145 v -739.92"
         style="fill:#ffffff;fill-opacity:1;fill-rule:nonzero;stroke:none"
         id="path232" /><path
         d="M 894.375,2055.37 H 415.309 v 33.02 h 479.066 v -33.02"
         style="fill:#99d9d2;fill-opacity:1;fill-rule:nonzero;stroke:none"
         id="path234" /><path
         d="M 774.125,1992.75 H 415.309 v 32.99 h 358.816 v -32.99"
         style="fill:#99d9d2;fill-opacity:1;fill-rule:nonzero;stroke:none"
         id="path236" /><path
         d="M 939.078,1992.75 H 824.547 v 32.99 h 114.531 v -32.99"
         style="fill:#0a536e;fill-opacity:1;fill-rule:nonzero;stroke:none"
         id="path238" /><path
         d="M 844.652,1930.11 H 415.309 v 32.99 h 429.343 v -32.99"
         style="fill:#99d9d2;fill-opacity:1;fill-rule:nonzero;stroke:none"
         id="path240" /><path
         d="m 947.371,1736.23 h -242.98 v 168.49 h 242.98 v -168.49"
         style="fill:#99d9d2;fill-opacity:1;fill-rule:nonzero;stroke:none"
         id="path242" /><path
         d="M 658.57,1736.23 H 415.582 v 168.49 H 658.57 v -168.49"
         style="fill:#99d9d2;fill-opacity:1;fill-rule:nonzero;stroke:none"
         id="path244" /><path
         d="M 918.27,1673.02 H 416.957 v 33.03 H 918.27 v -33.03"
         style="fill:#99d9d2;fill-opacity:1;fill-rule:nonzero;stroke:none"
         id="path246" /><path
         d="m 824.547,1610.43 h -407.59 v 33 h 407.59 v -33"
         style="fill:#99d9d2;fill-opacity:1;fill-rule:nonzero;stroke:none"
         id="path248" /><path
         d="M 918.27,1547.81 H 629.977 v 33.01 H 918.27 v -33.01"
         style="fill:#99d9d2;fill-opacity:1;fill-rule:nonzero;stroke:none"
         id="path250" /><path
         d="M 580.836,1547.81 H 419.184 v 33.01 h 161.652 v -33.01"
         style="fill:#0a536e;fill-opacity:1;fill-rule:nonzero;stroke:none"
         id="path252" /><path
         d="M 918.27,1485.13 H 416.957 v 33.02 H 918.27 v -33.02"
         style="fill:#99d9d2;fill-opacity:1;fill-rule:nonzero;stroke:none"
         id="path254" /><path
         d="M 368.406,2210.99 H 996.5 v -68.36 H 368.406 v 68.36"
         style="fill:#0a536e;fill-opacity:1;fill-rule:evenodd;stroke:none"
         id="path256" /><path
         d="m 423.363,2176.85 c 0,-6.37 -5.156,-11.52 -11.515,-11.52 -6.352,0 -11.493,5.15 -11.493,11.52 0,6.34 5.141,11.45 11.493,11.45 6.359,0 11.515,-5.11 11.515,-11.45"
         style="fill:#e7e5e6;fill-opacity:1;fill-rule:nonzero;stroke:none"
         id="path258" /><path
         d="m 462.078,2176.85 c 0,-6.37 -5.152,-11.52 -11.531,-11.52 -6.363,0 -11.508,5.15 -11.508,11.52 0,6.34 5.145,11.45 11.508,11.45 6.379,0 11.531,-5.11 11.531,-11.45"
         style="fill:#e7e5e6;fill-opacity:1;fill-rule:nonzero;stroke:none"
         id="path260" /><path
         d="m 500.738,2176.85 c 0,-6.37 -5.148,-11.52 -11.492,-11.52 -6.32,0 -11.508,5.15 -11.508,11.52 0,6.34 5.188,11.45 11.508,11.45 6.344,0 11.492,-5.11 11.492,-11.45"
         style="fill:#e7e5e6;fill-opacity:1;fill-rule:nonzero;stroke:none"
         id="path262" /><path
         d="m 232.047,1238.28 h 632.898 v -68.91 H 232.047 v 68.91"
         style="fill:#0a536e;fill-opacity:1;fill-rule:evenodd;stroke:none"
         id="path264" /><path
         d="m 236.625,549.039 h 628.313 v 620.332 H 236.625 Z"
         style="fill:#ffffff;fill-opacity:1;fill-rule:evenodd;stroke:none"
         id="path266" /><path
         d="M 304.605,737.578 H 802.074 V 842.969 H 304.605 Z"
         style="fill:#99d9d2;fill-opacity:1;fill-rule:nonzero;stroke:none"
         id="path268" /><path
         d="m 703.746,602.898 h -300.82 v 78.793 h 300.82 v -78.793"
         style="fill:#0a536e;fill-opacity:1;fill-rule:nonzero;stroke:none"
         id="path270" /><path
         d="m 304.605,888.129 h 497.469 v 105.41 H 304.605 Z"
         style="fill:#99d9d2;fill-opacity:1;fill-rule:nonzero;stroke:none"
         id="path272" /><path
         d="m 329.789,908.828 h 442.832 v 64.0313 H 329.789 Z"
         style="fill:#bbded4;fill-opacity:1;fill-rule:nonzero;stroke:none"
         id="path274" /><path
         d="m 329.789,758.789 h 442.832 v 62.9609 H 329.789 Z"
         style="fill:#bbded4;fill-opacity:1;fill-rule:nonzero;stroke:none"
         id="path276" /><path
         d="m 287.426,1203.86 c 0,-6.4 -5.196,-11.62 -11.61,-11.62 -6.398,0 -11.574,5.22 -11.574,11.62 0,6.39 5.176,11.54 11.574,11.54 6.414,0 11.61,-5.15 11.61,-11.54"
         style="fill:#e7e5e6;fill-opacity:1;fill-rule:nonzero;stroke:none"
         id="path278" /><path
         d="m 326.441,1203.86 c 0,-6.4 -5.207,-11.62 -11.632,-11.62 -6.407,0 -11.59,5.22 -11.59,11.62 0,6.39 5.183,11.54 11.59,11.54 6.425,0 11.632,-5.15 11.632,-11.54"
         style="fill:#e7e5e6;fill-opacity:1;fill-rule:nonzero;stroke:none"
         id="path280" /><path
         d="m 365.387,1203.86 c 0,-6.4 -5.176,-11.62 -11.574,-11.62 -6.375,0 -11.59,5.22 -11.59,11.62 0,6.39 5.215,11.54 11.59,11.54 6.398,0 11.574,-5.15 11.574,-11.54"
         style="fill:#e7e5e6;fill-opacity:1;fill-rule:nonzero;stroke:none"
         id="path282" /><path
         d="M 542.68,1082.98 H 306.625 v 29.31 H 542.68 v -29.31"
         style="fill:#99d9d2;fill-opacity:1;fill-rule:nonzero;stroke:none"
         id="path284" /><path
         d="M 651.734,1032.18 H 306.625 v 29.32 h 345.109 v -29.32"
         style="fill:#99d9d2;fill-opacity:1;fill-rule:nonzero;stroke:none"
         id="path286" /><path
         d="M 1506.38,924.18 H 752.285 V 2069.37 H 1506.38 V 924.18"
         style="fill:#ffffff;fill-opacity:1;fill-rule:nonzero;stroke:none"
         id="path288" /><path
         d="M 1506.38,1950.37 H 752.285 v 119 h 754.095 v -119"
         style="fill:#0a536e;fill-opacity:1;fill-rule:nonzero;stroke:none"
         id="path290" /><path
         d="m 933.809,1311.44 h 8.75 v -40.62 h 19.707 v -7.33 h -28.457 v 47.95"
         style="fill:#39342f;fill-opacity:1;fill-rule:nonzero;stroke:none"
         id="path292" /><path
         d="m 974.57,1280.77 c 0,-6.69 3.282,-11.74 8.614,-11.74 4.98,0 8.464,4.91 8.464,11.87 0,5.43 -2.41,11.61 -8.394,11.61 -6.184,0 -8.684,-5.97 -8.684,-11.74 z m 26.11,0.36 c 0,-12.73 -8.961,-18.43 -17.77,-18.43 -9.836,0 -17.375,6.75 -17.375,17.86 0,11.37 7.473,18.35 17.934,18.35 10.304,0 17.211,-7.25 17.211,-17.78"
         style="fill:#39342f;fill-opacity:1;fill-rule:nonzero;stroke:none"
         id="path294" /><path
         d="m 1007.87,1286.95 c 0,4.71 -0.08,8.05 -0.28,11.19 h 7.61 l 0.28,-6.63 h 0.28 c 1.71,4.91 5.76,7.4 9.46,7.4 l 2.07,-0.22 v -8.25 c -0.71,0.14 -1.49,0.28 -2.56,0.28 -4.2,0 -7.04,-2.7 -7.83,-6.59 -0.14,-0.79 -0.28,-1.73 -0.28,-2.73 v -17.91 h -8.75 v 23.46"
         style="fill:#39342f;fill-opacity:1;fill-rule:nonzero;stroke:none"
         id="path296" /><path
         d="m 1053.96,1284.47 c 0.07,3.2 -1.33,8.46 -7.18,8.46 -5.4,0 -7.68,-4.91 -8.04,-8.46 z m -15.22,-6.11 c 0.22,-6.27 5.13,-8.96 10.68,-8.96 4.05,0 6.97,0.56 9.59,1.55 l 1.28,-6.04 c -2.98,-1.2 -7.11,-2.13 -12.09,-2.13 -11.24,0 -17.86,6.88 -17.86,17.49 0,9.61 5.85,18.64 16.95,18.64 11.23,0 14.93,-9.24 14.93,-16.85 0,-1.63 -0.14,-2.92 -0.29,-3.7 h -23.19"
         style="fill:#39342f;fill-opacity:1;fill-rule:nonzero;stroke:none"
         id="path298" /><path
         d="m 1069.26,1287.81 c 0,3.98 -0.07,7.32 -0.29,10.33 h 7.55 l 0.36,-5.14 h 0.21 c 1.7,2.71 4.84,5.91 10.66,5.91 4.55,0 8.11,-2.57 9.6,-6.4 h 0.15 c 1.21,1.91 2.64,3.35 4.27,4.33 1.93,1.36 4.13,2.07 6.97,2.07 5.76,0 11.59,-3.91 11.59,-15.02 v -20.4 h -8.53 v 19.12 c 0,5.76 -2,9.18 -6.18,9.18 -2.99,0 -5.2,-2.12 -6.13,-4.62 -0.2,-0.84 -0.43,-1.91 -0.43,-2.92 v -20.76 h -8.53 v 20.04 c 0,4.84 -1.92,8.26 -5.97,8.26 -3.29,0 -5.48,-2.56 -6.27,-4.98 -0.36,-0.84 -0.49,-1.84 -0.49,-2.84 v -20.48 h -8.54 v 24.32"
         style="fill:#39342f;fill-opacity:1;fill-rule:nonzero;stroke:none"
         id="path300" /><path
         d="m 1144.31,1263.49 v 34.65 h 8.82 v -34.65 z m 9.32,44.32 c 0,-2.65 -1.93,-4.7 -4.98,-4.7 -2.92,0 -4.84,2.05 -4.84,4.7 0,2.69 1.99,4.75 4.91,4.75 2.98,0 4.84,-2.06 4.91,-4.75"
         style="fill:#39342f;fill-opacity:1;fill-rule:nonzero;stroke:none"
         id="path302" /><path
         d="m 1171.26,1277.98 0.29,-2.41 c 0.85,-3.56 3.99,-6.12 7.69,-6.12 5.55,0 8.83,4.63 8.83,11.45 0,6.13 -3,11.11 -8.62,11.11 -3.62,0 -6.97,-2.63 -7.82,-6.47 l -0.37,-2.2 z m -8.75,8.62 c 0,4.57 -0.14,8.26 -0.27,11.54 h 7.68 l 0.43,-5.35 h 0.14 c 2.56,3.91 6.6,6.12 11.88,6.12 7.96,0 14.58,-6.84 14.58,-17.64 0,-12.52 -7.9,-18.57 -15.79,-18.57 -4.34,0 -7.97,1.85 -9.74,4.62 h -0.16 v -17.93 h -8.75 v 37.21"
         style="fill:#39342f;fill-opacity:1;fill-rule:nonzero;stroke:none"
         id="path304" /><path
         d="m 1203.71,1271.52 c 2,-1.21 5.76,-2.49 8.9,-2.49 3.85,0 5.53,1.58 5.53,3.84 0,2.34 -1.41,3.55 -5.68,5.06 -6.75,2.34 -9.6,6.04 -9.54,10.09 0,6.12 5.06,10.89 13.1,10.89 3.83,0 7.18,-0.99 9.18,-2.07 l -1.71,-6.17 c -1.5,0.84 -4.27,1.98 -7.34,1.98 -3.12,0 -4.83,-1.48 -4.83,-3.63 0,-2.21 1.63,-3.28 6.05,-4.84 6.26,-2.27 9.17,-5.48 9.25,-10.59 0,-6.27 -4.92,-10.81 -14.1,-10.81 -4.18,0 -7.96,0.99 -10.51,2.41 l 1.7,6.33"
         style="fill:#39342f;fill-opacity:1;fill-rule:nonzero;stroke:none"
         id="path306" /><path
         d="m 1264.81,1273.86 c 0,-4.12 0.15,-7.54 0.29,-10.37 h -7.69 l -0.42,5.26 h -0.14 c -1.5,-2.48 -4.9,-6.05 -11.1,-6.05 -6.33,0 -12.09,3.78 -12.09,15.08 v 20.36 h 8.75 v -18.87 c 0,-5.76 1.85,-9.47 6.48,-9.47 3.48,0 5.75,2.51 6.68,4.72 0.27,0.77 0.49,1.69 0.49,2.7 v 20.92 h 8.75 v -24.28"
         style="fill:#39342f;fill-opacity:1;fill-rule:nonzero;stroke:none"
         id="path308" /><path
         d="m 1274.28,1287.81 c 0,3.98 -0.08,7.32 -0.29,10.33 h 7.54 l 0.35,-5.14 h 0.21 c 1.72,2.71 4.85,5.91 10.68,5.91 4.55,0 8.1,-2.57 9.6,-6.4 h 0.15 c 1.21,1.91 2.64,3.35 4.27,4.33 1.92,1.36 4.12,2.07 6.96,2.07 5.77,0 11.6,-3.91 11.6,-15.02 v -20.4 h -8.53 v 19.12 c 0,5.76 -2,9.18 -6.19,9.18 -2.99,0 -5.21,-2.12 -6.12,-4.62 -0.21,-0.84 -0.43,-1.91 -0.43,-2.92 v -20.76 h -8.53 v 20.04 c 0,4.84 -1.92,8.26 -5.98,8.26 -3.27,0 -5.48,-2.56 -6.26,-4.98 -0.36,-0.84 -0.5,-1.84 -0.5,-2.84 v -20.48 h -8.53 v 24.32"
         style="fill:#39342f;fill-opacity:1;fill-rule:nonzero;stroke:none"
         id="path310" /><path
         d="m 1019.94,1240.84 h 3.7 v -25.63 h 12.29 v -3.1 h -15.99 v 28.73"
         style="fill:#39342f;fill-opacity:1;fill-rule:nonzero;stroke:none"
         id="path312" /><path
         d="m 1041.66,1222.37 c 0,-4.51 2.6,-7.92 6.26,-7.92 3.58,0 6.27,3.36 6.27,8.01 0,3.49 -1.74,7.95 -6.17,7.95 -4.44,0 -6.36,-4.11 -6.36,-8.04 z m 16.38,0.22 c 0,-7.63 -5.3,-10.97 -10.29,-10.97 -5.57,0 -9.88,4.11 -9.88,10.62 0,6.92 4.52,10.96 10.23,10.96 5.92,0 9.94,-4.29 9.94,-10.61"
         style="fill:#39342f;fill-opacity:1;fill-rule:nonzero;stroke:none"
         id="path314" /><path
         d="m 1062.79,1226.3 c 0,2.43 -0.05,4.52 -0.17,6.44 h 3.28 l 0.14,-4.04 h 0.16 c 0.95,2.76 3.19,4.5 5.71,4.5 l 1.07,-0.12 v -3.53 l -1.29,0.11 c -2.64,0 -4.5,-1.99 -5.02,-4.8 l -0.17,-1.76 v -10.99 h -3.71 v 14.19"
         style="fill:#39342f;fill-opacity:1;fill-rule:nonzero;stroke:none"
         id="path316" /><path
         d="m 1089.41,1224.42 c 0.04,2.39 -0.98,6.1 -5.21,6.1 -3.79,0 -5.45,-3.49 -5.75,-6.1 z m -10.99,-2.69 c 0.08,-5.07 3.33,-7.15 7.07,-7.15 2.68,0 4.3,0.46 5.71,1.06 l 0.65,-2.68 c -1.33,-0.59 -3.59,-1.27 -6.87,-1.27 -6.36,0 -10.16,4.17 -10.16,10.4 0,6.21 3.68,11.11 9.69,11.11 6.73,0 8.53,-5.92 8.53,-9.71 l -0.13,-1.76 h -14.49"
         style="fill:#39342f;fill-opacity:1;fill-rule:nonzero;stroke:none"
         id="path318" /><path
         d="m 1097.71,1227.14 c 0,2.13 -0.04,3.89 -0.18,5.6 h 3.29 l 0.18,-3.33 h 0.11 c 1.16,1.95 3.06,3.79 6.49,3.79 2.81,0 4.95,-1.7 5.84,-4.13 h 0.09 c 0.63,1.15 1.44,2.05 2.3,2.68 1.23,0.94 2.6,1.45 4.57,1.45 2.72,0 6.77,-1.77 6.77,-8.95 v -12.14 h -3.67 v 11.67 c 0,3.97 -1.45,6.35 -4.47,6.35 -2.14,0 -3.8,-1.58 -4.44,-3.4 l -0.29,-1.87 v -12.75 h -3.67 v 12.36 c 0,3.28 -1.46,5.66 -4.31,5.66 -2.35,0 -4.05,-1.87 -4.65,-3.74 l -0.29,-1.84 v -12.44 h -3.67 v 15.03"
         style="fill:#39342f;fill-opacity:1;fill-rule:nonzero;stroke:none"
         id="path320" /><path
         d="m 1142.35,1212.11 v 20.63 h 3.75 v -20.63 z m 4.18,26.42 c 0.04,-1.27 -0.9,-2.3 -2.38,-2.3 -1.33,0 -2.27,1.03 -2.27,2.3 0,1.33 0.98,2.35 2.35,2.35 1.4,0 2.3,-1.02 2.3,-2.35"
         style="fill:#39342f;fill-opacity:1;fill-rule:nonzero;stroke:none"
         id="path322" /><path
         d="m 1156.04,1220.5 0.18,-1.54 c 0.68,-2.6 2.94,-4.38 5.63,-4.38 3.96,0 6.27,3.23 6.27,7.95 0,4.15 -2.18,7.69 -6.15,7.69 -2.55,0 -4.94,-1.83 -5.66,-4.65 l -0.27,-1.52 z m -3.7,5.49 c 0,2.66 -0.08,4.79 -0.17,6.75 h 3.37 l 0.17,-3.55 h 0.09 c 1.53,2.52 3.96,4.01 7.33,4.01 4.99,0 8.74,-4.22 8.74,-10.49 0,-7.42 -4.52,-11.09 -9.38,-11.09 -2.73,0 -5.12,1.22 -6.36,3.27 h -0.09 v -11.22 h -3.7 v 22.32"
         style="fill:#39342f;fill-opacity:1;fill-rule:nonzero;stroke:none"
         id="path324" /><path
         d="m 1176.12,1215.93 c 1.11,-0.72 3.07,-1.48 4.94,-1.48 2.73,0 4.01,1.36 4.01,3.07 0,1.8 -1.07,2.78 -3.83,3.78 -3.73,1.33 -5.46,3.38 -5.46,5.84 0,3.32 2.69,6.06 7.12,6.06 2.08,0 3.92,-0.59 5.07,-1.27 l -0.94,-2.74 c -0.8,0.51 -2.29,1.22 -4.22,1.22 -2.21,0 -3.45,-1.29 -3.45,-2.84 0,-1.7 1.24,-2.48 3.92,-3.49 3.59,-1.37 5.42,-3.15 5.42,-6.22 0,-3.63 -2.81,-6.17 -7.72,-6.17 -2.26,0 -4.35,0.54 -5.8,1.39 l 0.94,2.85"
         style="fill:#39342f;fill-opacity:1;fill-rule:nonzero;stroke:none"
         id="path326" /><path
         d="m 1210.8,1217.73 c 0,-2.13 0.04,-3.98 0.17,-5.62 h -3.31 l -0.23,3.37 h -0.09 c -0.97,-1.68 -3.15,-3.86 -6.81,-3.86 -3.24,0 -7.13,1.81 -7.13,9.06 v 12.06 h 3.76 v -11.44 c 0,-3.9 1.18,-6.56 4.6,-6.56 2.52,0 4.27,1.75 4.93,3.42 l 0.35,1.92 v 12.66 h 3.76 v -15.01"
         style="fill:#39342f;fill-opacity:1;fill-rule:nonzero;stroke:none"
         id="path328" /><path
         d="m 1217.05,1227.14 c 0,2.13 -0.04,3.89 -0.17,5.6 h 3.28 l 0.17,-3.33 h 0.12 c 1.16,1.95 3.08,3.79 6.49,3.79 2.83,0 4.95,-1.7 5.84,-4.13 h 0.09 c 0.64,1.15 1.45,2.05 2.31,2.68 1.23,0.94 2.59,1.45 4.55,1.45 2.73,0 6.77,-1.77 6.77,-8.95 v -12.14 h -3.66 v 11.67 c 0,3.97 -1.44,6.35 -4.47,6.35 -2.14,0 -3.8,-1.58 -4.43,-3.4 l -0.31,-1.87 v -12.75 h -3.66 v 12.36 c 0,3.28 -1.45,5.66 -4.31,5.66 -2.34,0 -4.05,-1.87 -4.64,-3.74 l -0.3,-1.84 v -12.44 h -3.67 v 15.03"
         style="fill:#39342f;fill-opacity:1;fill-rule:nonzero;stroke:none"
         id="path330" /><path
         d="m 1057.58,1070.6 c 0,-43.22 -35.02,-78.248 -78.256,-78.248 -43.219,0 -78.25,35.028 -78.25,78.248 0,43.22 35.031,78.24 78.25,78.24 43.236,0 78.256,-35.02 78.256,-78.24"
         style="fill:#0a536e;fill-opacity:1;fill-rule:nonzero;stroke:none"
         id="path332" /><path
         d="m 1366.15,1070.6 c 0,-43.22 -35.03,-78.248 -78.26,-78.248 -43.22,0 -78.25,35.028 -78.25,78.248 0,43.22 35.03,78.24 78.25,78.24 43.23,0 78.26,-35.02 78.26,-78.24"
         style="fill:#0a536e;fill-opacity:1;fill-rule:nonzero;stroke:none"
         id="path334" /><path
         d="m 1018.18,1050.7 -19.899,19.9 19.899,19.9 c 2.08,2.09 2.04,5.49 0,7.58 l -11.36,11.37 c -2.1,2.06 -5.5,2.06 -7.582,0 l -19.914,-19.9 -19.898,19.9 c -2.082,2.06 -5.473,2.06 -7.578,0 l -11.36,-11.37 c -2.07,-2.09 -2.07,-5.49 0,-7.58 l 19.903,-19.92 -19.903,-19.88 c -2.07,-2.08 -2.07,-5.49 0,-7.57 l 11.36,-11.38 c 2.078,-2.07 5.496,-2.07 7.578,0 l 19.898,19.92 19.914,-19.92 c 2.082,-2.07 5.482,-2.07 7.582,0 l 11.36,11.38 c 2.08,2.08 2.08,5.5 0,7.57"
         style="fill:#e2e9ec;fill-opacity:1;fill-rule:nonzero;stroke:none"
         id="path336" /><path
         d="m 1333.07,1100.78 -14.28,11.54 c -1.5,1.19 -3.73,0.96 -4.92,-0.53 l -38.98,-48.24 -15.24,13.83 c -1.46,1.33 -3.68,1.21 -4.97,-0.22 l -12.34,-13.57 c -1.3,-1.41 -1.21,-3.65 0.25,-4.96 l 32.62,-29.65 c 1.43,-1.31 3.58,-1.13 4.8,0.37 l 11.51,14.36 0.05,0.07 42.01,52.04 c 1.23,1.52 0.99,3.77 -0.51,4.96"
         style="fill:#e2e9ec;fill-opacity:1;fill-rule:nonzero;stroke:none"
         id="path338" /><path
         d="m 1095.69,1781.2 c 23.19,9.52 60.67,9.52 83.23,0 22.63,-9.54 38.88,-40.65 36.17,-69 l -7.22,-74.14 c -2.86,-28.36 -28.46,-51.6 -57.03,-51.6 h -28.08 c -28.63,0 -54.23,23.24 -57.02,51.6 l -7.24,74.14 c -2.77,28.35 13.98,59.46 37.19,69 z m -0.89,-230.89 h 84.01 c 28.62,0 67.96,-16.99 87.55,-37.79 l 35.08,-37.33 c 36.49,39.77 58.97,92.68 58.97,150.93 0,123.51 -100.1,223.62 -223.62,223.62 -123.49,0 -223.606,-100.11 -223.606,-223.62 0,-58.27 22.468,-111.16 58.972,-150.93 l 35.134,37.33 c 19.54,20.8 58.95,37.79 87.51,37.79"
         style="fill:#99d9d2;fill-opacity:1;fill-rule:nonzero;stroke:none"
         id="path340" /><path
         d="m 1301.44,1475.19 -35.08,37.33 c -19.59,20.8 -58.93,37.79 -87.55,37.79 h -84.01 c -28.56,0 -67.97,-16.99 -87.51,-37.79 l -35.134,-37.33 c 40.884,-44.57 99.404,-72.69 164.634,-72.69 65.25,0 123.78,28.12 164.65,72.69"
         style="fill:#feffff;fill-opacity:1;fill-rule:nonzero;stroke:none"
         id="path342" /><path
         d="m 1065.74,1638.06 c 2.79,-28.36 28.39,-51.6 57.02,-51.6 h 28.08 c 28.57,0 54.17,23.24 57.03,51.6 l 7.22,74.14 c 2.71,28.35 -13.54,59.46 -36.17,69 -22.56,9.52 -60.04,9.52 -83.23,0 -23.21,-9.54 -39.96,-40.65 -37.19,-69 l 7.24,-74.14"
         style="fill:#feffff;fill-opacity:1;fill-rule:nonzero;stroke:none"
         id="path344" /><path
         d="M 1273.99,1995.23 H 983.137 v 29.31 h 290.853 v -29.31"
         style="fill:#ffffff;fill-opacity:1;fill-rule:nonzero;stroke:none"
         id="path346" /></g></g></svg>
