<?xml version="1.0" encoding="utf-8"?>
<!-- Generator: Adobe Illustrator 16.0.0, SVG Export Plug-In . SVG Version: 6.00 Build 0)  -->
<!DOCTYPE svg PUBLIC "-//W3C//DTD SVG 1.1//EN" "http://www.w3.org/Graphics/SVG/1.1/DTD/svg11.dtd">
<svg version="1.1" id="Layer_1" xmlns="http://www.w3.org/2000/svg" xmlns:xlink="http://www.w3.org/1999/xlink" x="0px" y="0px"
	 width="335.986px" height="235.19px" viewBox="0 0 335.986 235.19" enable-background="new 0 0 335.986 235.19"
	 xml:space="preserve">
<g>
	<g>
		<rect fill="#1F9EA1" width="335.986" height="235.19"/>
	</g>
</g>
<path fill="#21ADB0" d="M267.843,117.595c0,55.326-44.851,100.17-100.171,100.17c-55.315,0-100.165-44.844-100.165-100.17
	s44.85-100.17,100.165-100.17C222.992,17.425,267.843,62.269,267.843,117.595z"/>
<g opacity="0.1">
	<polygon fill="#1D1D1B" points="54.091,102.016 64.795,102.016 64.795,80.27 54.091,80.27 54.091,54.707 43.388,54.707 
		43.388,71.735 32.684,71.735 32.684,63.345 21.981,63.345 21.981,102.016 32.684,102.016 43.388,102.016 	"/>
	<path fill="#1D1D1B" d="M78.315,124.868H43.38c-4.926,0-8.953,4.028-8.953,8.953v72.25c0,4.925,4.027,8.955,8.953,8.955h34.936
		c4.925,0,8.952-4.03,8.952-8.955v-72.25C87.268,128.896,83.24,124.868,78.315,124.868z"/>
	<path fill="#1D1D1B" d="M290.655,72.895L290.655,72.895L290.655,72.895C290.656,72.895,290.656,72.895,290.655,72.895
		L290.655,72.895c13.494,0,24.428-10.935,24.428-24.422h-24.427h-0.001V24.049c-13.493,0-24.43,10.933-24.43,24.424h-0.001
		C266.225,61.96,277.163,72.895,290.655,72.895z"/>
	<path fill="#1D1D1B" d="M294.42,20.282v24.426h24.429C318.849,31.216,307.91,20.282,294.42,20.282z"/>
	<path fill="#1D1D1B" d="M305.751,190.395h-29.335c-5.161,0-9.387,4.224-9.387,9.385v8.282v8.284c0,5.161,4.226,9.384,9.387,9.384
		h29.335c5.163,0,9.388-4.223,9.388-9.384v-8.284v-8.282C315.139,194.618,310.914,190.395,305.751,190.395z"/>
	<path fill="#1D1D1B" d="M80.597,53.928h29.335c5.163,0,9.388-4.223,9.388-9.384V36.26v-8.282c0-5.161-4.225-9.385-9.388-9.385
		H80.597c-5.161,0-9.387,4.224-9.387,9.385v8.282v8.284C71.21,49.705,75.436,53.928,80.597,53.928z"/>
	<path fill="#1D1D1B" d="M179.281,60.502c8.693-0.33,15.473-7.646,15.134-16.33c-0.318-8.682-7.626-15.46-16.311-15.13
		c-8.692,0.333-15.468,7.637-15.14,16.325C163.294,54.063,170.603,60.83,179.281,60.502z"/>
	<path fill="#1D1D1B" d="M306.296,94.916c-8.692,0.333-15.468,7.637-15.14,16.325c0.329,8.696,7.638,15.463,16.316,15.135
		c8.693-0.33,15.473-7.646,15.134-16.33C322.288,101.364,314.98,94.586,306.296,94.916z"/>
	<path fill="#1D1D1B" d="M218.569,50.562c0.768-0.029,1.514-0.131,2.248-0.266c2.315,6.178,8.373,10.464,15.318,10.202
		c8.693-0.329,15.473-7.646,15.134-16.33c-0.318-8.682-7.626-15.46-16.311-15.13c-0.769,0.029-1.515,0.132-2.25,0.266
		c-2.31-6.172-8.367-10.466-15.317-10.202c-8.691,0.333-15.468,7.638-15.139,16.326C202.581,44.125,209.89,50.891,218.569,50.562z"
		/>
	<path fill="#1D1D1B" d="M132.638,196.798c-0.769,0.029-1.515,0.132-2.25,0.267c-2.31-6.173-8.367-10.467-15.317-10.203
		c-8.691,0.333-15.468,7.638-15.139,16.326c0.328,8.696,7.637,15.462,16.316,15.134c0.768-0.029,1.514-0.131,2.248-0.266
		c2.315,6.178,8.373,10.464,15.318,10.202c8.693-0.329,15.473-7.646,15.134-16.33C148.63,203.246,141.322,196.468,132.638,196.798z"
		/>
	<path fill="#1D1D1B" d="M310.758,158.377l-33.488-13.269c-2.484-0.983-5.158-0.71-7.318,0.517l-0.118,0.298l-7.34-2.908
		c3.975-16.053-3.332-32.882-17.783-40.937V76.397c0-3.809-3.116-6.925-6.925-6.925h-129.94c-3.81,0-6.925,3.116-6.925,6.925v78.571
		c0,3.808,3.115,6.925,6.925,6.925h42.643v5.398v18.475h-7.412c-1.428,0-2.597,1.168-2.597,2.597v1.242
		c0,1.429,1.169,2.597,2.597,2.597h59.167c1.429,0,2.597-1.168,2.597-2.597v-1.242c0-1.429-1.168-2.597-2.597-2.597h-7.412v-18.475
		v-5.398h7.643c3.086,2.706,6.676,4.942,10.71,6.541c7.721,3.059,15.856,3.324,23.289,1.281c9.263-2.542,17.425-8.674,22.353-17.447
		l7.341,2.909l-0.118,0.298l0.004,0.001c0.733,2.375,2.493,4.403,4.977,5.389l33.489,13.269c4.353,1.729,9.282-0.407,11.004-4.758
		C317.247,165.029,315.116,160.104,310.758,158.377z"/>
</g>
<rect x="48.896" y="74.941" fill="#F5F5F5" width="10.704" height="21.746"/>
<rect x="38.193" y="49.379" fill="#2D3E50" width="10.703" height="47.309"/>
<rect x="27.489" y="66.407" fill="#FFCD61" width="10.704" height="30.28"/>
<rect x="16.787" y="58.017" fill="#2D3E50" width="10.702" height="38.671"/>
<path fill="#2D3E50" d="M82.073,200.743c0,4.925-4.027,8.955-8.952,8.955H38.186c-4.926,0-8.953-4.03-8.953-8.955v-72.25
	c0-4.925,4.027-8.953,8.953-8.953h34.936c4.925,0,8.952,4.028,8.952,8.953V200.743z"/>
<rect x="32.347" y="129.523" fill="#FFCD61" width="46.613" height="68.693"/>
<circle fill="#566C81" cx="55.653" cy="203.733" r="3.502"/>
<rect x="44.7" y="123.861" fill="#566C81" width="15.457" height="2.029"/>
<circle fill="#566C81" cx="65.224" cy="124.875" r="1.445"/>
<g>
	<path fill="#FFFFFF" d="M261.03,43.145c0,13.487,10.939,24.422,24.432,24.422V43.145H261.03z"/>
	<path fill="#475A6B" d="M285.461,67.566c13.493,0,24.428-10.935,24.428-24.422h-24.428V67.566z"/>
	<path fill="#2F333C" d="M313.654,39.38c0-13.492-10.938-24.426-24.429-24.426V39.38H313.654z"/>
	<path fill="#FFCD61" d="M285.461,43.145V18.721c-13.493,0-24.43,10.933-24.43,24.424H285.461z"/>
</g>
<path fill="#2D3E50" d="M55.653,175.679v-8.185c-5.797,0-10.513-4.717-10.513-10.514c0-5.798,4.716-10.514,10.513-10.514v-8.185
	c-10.326,0-18.697,8.371-18.697,18.698C36.956,167.307,45.327,175.679,55.653,175.679z"/>
<g>
	<path fill="#F9FBFA" d="M55.653,167.494v8.185c10.326,0,18.698-8.372,18.698-18.698h-8.185
		C66.167,162.777,61.451,167.494,55.653,167.494z"/>
	<path fill="#566C81" d="M55.653,138.282v8.185c5.798,0,10.514,4.716,10.514,10.514h8.185
		C74.352,146.653,65.979,138.282,55.653,138.282z"/>
</g>
<path fill="#2D3E50" d="M239.516,149.641c0,3.808-3.116,6.925-6.925,6.925H102.65c-3.81,0-6.925-3.117-6.925-6.925V71.069
	c0-3.809,3.115-6.925,6.925-6.925h129.94c3.809,0,6.925,3.116,6.925,6.925V149.641z"/>
<rect x="101.381" y="70.35" fill="#FFCD61" width="132.252" height="79.842"/>
<rect x="145.293" y="156.565" fill="#566C81" width="44.343" height="27.091"/>
<rect x="145.293" y="156.565" fill="#475A6B" width="44.343" height="5.398"/>
<path fill="#2D3E50" d="M199.645,184.277c0,1.429-1.168,2.597-2.597,2.597h-59.167c-1.428,0-2.597-1.168-2.597-2.597v-1.242
	c0-1.429,1.169-2.597,2.597-2.597h59.167c1.429,0,2.597,1.168,2.597,2.597V184.277z"/>
<circle fill="#F5F5F5" cx="221.557" cy="128.879" r="31.717"/>
<path fill="#5A6D84" d="M248.633,128.88c0,0-8.974,12.164-26.923,12.164c-18.376,0-27.23-12.164-27.23-12.164
	s10.136-12.165,27.23-12.165C239.091,116.715,248.633,128.88,248.633,128.88z"/>
<g>
	<path fill="#FFCD61" d="M211.599,128.807c0,5.499,4.458,9.957,9.961,9.957V118.85C216.057,118.85,211.599,123.307,211.599,128.807z
		"/>
	<path fill="#FFCD61" d="M221.56,118.85v19.914c5.496,0,9.956-4.458,9.956-9.957C231.516,123.307,227.056,118.85,221.56,118.85z"/>
</g>
<g>
	<path fill="#4A4450" d="M226.476,128.809h-4.918v-4.922c-2.713,0-4.918,2.209-4.918,4.922c0,2.711,2.205,4.918,4.918,4.918
		S226.476,131.52,226.476,128.809z"/>
	<path fill="#FFFFFB" d="M226.476,128.809c0-2.713-2.205-4.922-4.918-4.922v4.922H226.476z"/>
</g>
<path fill="#F9FBFA" d="M171.496,110.354c0,15.996-12.966,28.962-28.963,28.962c-15.998,0-28.962-12.966-28.962-28.962
	c0-15.991,12.964-28.962,28.962-28.962C158.53,81.393,171.496,94.363,171.496,110.354z"/>
<path fill-rule="evenodd" clip-rule="evenodd" fill="#5A6D84" d="M160.632,103.925l-19.162,19.29c-1.771,1.771-4.625,1.771-6.387,0
	l-10.649-10.719c-1.759-1.771-1.759-4.65,0-6.43c1.771-1.774,4.628-1.774,6.389,0l2.133,2.146l2.128,2.142
	c1.762,1.776,4.615,1.776,6.387,0l2.133-2.142l2.122-2.146l8.518-8.569c1.763-1.774,4.625-1.774,6.39,0
	C162.393,99.271,162.393,102.154,160.632,103.925z"/>
<g>
	<g>
		<g>
			<path fill="#475A6B" d="M309.944,194.451c0-5.161-4.225-9.385-9.388-9.385h-29.335c-5.161,0-9.387,4.224-9.387,9.385v8.282
				h48.109V194.451z"/>
			<path fill="#2D3E50" d="M261.835,202.733v8.284c0,5.161,4.226,9.384,9.387,9.384h29.335c5.163,0,9.388-4.223,9.388-9.384v-8.284
				H261.835z"/>
		</g>
		<path fill-rule="evenodd" clip-rule="evenodd" fill="#FFFFFF" d="M295.017,203.397l-10.978,7.982
			c-0.23,0.169-0.531,0.249-0.837,0.265c-0.025,0.001-0.047,0.013-0.075,0.013c-0.618,0-1.116-0.498-1.116-1.113v-15.619
			c0-0.616,0.498-1.112,1.11-1.114h-0.004h0.01c0.006,0,0.013,0.004,0.02,0.004c0.324,0.004,0.645,0.093,0.893,0.27l10.978,7.982
			C295.522,202.434,295.522,203.029,295.017,203.397z"/>
	</g>
</g>
<g>
	<g>
		<g>
			<path fill="#475A6B" d="M114.125,22.649c0-5.161-4.225-9.385-9.388-9.385H75.402c-5.161,0-9.387,4.224-9.387,9.385v8.282h48.109
				V22.649z"/>
			<path fill="#2D3E50" d="M66.016,30.932v8.284c0,5.161,4.226,9.384,9.387,9.384h29.335c5.163,0,9.388-4.223,9.388-9.384v-8.284
				H66.016z"/>
		</g>
	</g>
</g>
<path fill="#FFFFFF" d="M100.216,29.209l-8.236-6.952c-1.119-0.945-2.037-0.52-2.037,0.949v5.793l-7.986-6.742
	c-1.121-0.945-2.038-0.52-2.038,0.949v15.45c0,1.47,0.917,1.895,2.038,0.949l7.986-6.744v5.795c0,1.47,0.918,1.895,2.037,0.949
	l8.236-6.953C101.338,31.707,101.338,30.157,100.216,29.209z"/>
<g>
	<path fill="#FFCD61" d="M189.221,38.844c0.339,8.685-6.44,16-15.134,16.33c-8.679,0.328-15.987-6.438-16.316-15.135
		c-0.328-8.688,6.447-15.992,15.14-16.325C181.595,23.384,188.902,30.162,189.221,38.844z"/>
	<path fill="#FFCD61" d="M174.001,52.629c-7.266,0.272-13.409-5.412-13.687-12.682c-0.272-7.276,5.421-13.413,12.683-13.685
		c7.272-0.281,13.413,5.412,13.693,12.681C186.959,46.213,181.27,52.353,174.001,52.629z"/>
	<path fill="#F2B738" d="M173.922,50.721c-6.218,0.238-11.464-4.627-11.706-10.841c-0.231-6.22,4.639-11.482,10.856-11.714
		c6.225-0.242,11.475,4.623,11.71,10.853C185.013,45.24,180.142,50.494,173.922,50.721z"/>
	<g>
		<path fill="#FFFFFF" d="M173.826,44.425c-1.194,0-2.433-0.666-3.71-1.996l-1.992,1.996c0.755,0.792,1.574,1.428,2.454,1.905
			c0.644,0.348,1.423,0.574,2.339,0.674v0.951h1.969v-1.012c0.97-0.196,1.716-0.487,2.231-0.869
			c0.519-0.383,0.939-0.902,1.271-1.558c0.328-0.655,0.492-1.368,0.492-2.14c0-0.773-0.153-1.469-0.462-2.091
			c-0.307-0.62-0.748-1.151-1.319-1.597c-0.573-0.443-1.637-0.979-3.188-1.608c-0.872-0.349-1.454-0.675-1.741-0.984
			c-0.293-0.301-0.44-0.604-0.44-0.91c0-0.36,0.166-0.681,0.5-0.957c0.329-0.277,0.763-0.418,1.295-0.418
			c0.899,0,1.812,0.466,2.734,1.395l2.024-1.927c-0.643-0.634-1.202-1.084-1.675-1.351c-0.471-0.267-1.045-0.479-1.723-0.636v-1.155
			h-1.969v1.025c-1.177,0.05-2.147,0.446-2.916,1.182c-0.769,0.733-1.153,1.617-1.153,2.647c0,0.62,0.146,1.207,0.433,1.756
			c0.293,0.549,0.731,1.045,1.317,1.484c0.588,0.439,1.713,1.037,3.376,1.788c0.817,0.366,1.369,0.731,1.658,1.088
			c0.277,0.354,0.418,0.766,0.418,1.237c0,0.56-0.22,1.046-0.656,1.459C174.957,44.219,174.434,44.425,173.826,44.425z"/>
	</g>
</g>
<g>
	<path fill="#FFCD61" d="M317.412,104.718c0.339,8.685-6.44,16-15.134,16.33c-8.679,0.328-15.987-6.438-16.316-15.135
		c-0.328-8.688,6.447-15.992,15.14-16.325C309.786,89.258,317.094,96.036,317.412,104.718z"/>
	<path fill="#FFCD61" d="M302.192,118.503c-7.266,0.272-13.409-5.412-13.687-12.682c-0.272-7.276,5.421-13.413,12.683-13.685
		c7.272-0.281,13.413,5.412,13.693,12.681C315.15,112.087,309.461,118.227,302.192,118.503z"/>
	<path fill="#F2B738" d="M302.113,116.595c-6.218,0.238-11.464-4.627-11.706-10.841c-0.231-6.22,4.639-11.482,10.856-11.714
		c6.225-0.242,11.475,4.623,11.71,10.853C313.204,111.114,308.333,116.368,302.113,116.595z"/>
	<g>
		<path fill="#FFFFFF" d="M302.018,110.299c-1.194,0-2.433-0.666-3.71-1.996l-1.992,1.996c0.755,0.792,1.574,1.428,2.454,1.905
			c0.644,0.348,1.423,0.574,2.339,0.674v0.951h1.969v-1.012c0.97-0.196,1.716-0.487,2.231-0.869
			c0.519-0.383,0.939-0.902,1.271-1.558c0.328-0.655,0.492-1.368,0.492-2.14c0-0.773-0.153-1.469-0.462-2.091
			c-0.307-0.62-0.748-1.151-1.319-1.597c-0.573-0.443-1.637-0.979-3.188-1.608c-0.872-0.349-1.454-0.675-1.741-0.984
			c-0.293-0.301-0.44-0.604-0.44-0.91c0-0.36,0.166-0.681,0.5-0.957c0.329-0.277,0.763-0.418,1.295-0.418
			c0.899,0,1.812,0.466,2.734,1.395l2.024-1.927c-0.643-0.634-1.202-1.084-1.675-1.351c-0.471-0.267-1.045-0.479-1.723-0.636v-1.155
			h-1.969v1.025c-1.177,0.05-2.147,0.446-2.916,1.182c-0.769,0.733-1.153,1.617-1.153,2.647c0,0.62,0.146,1.207,0.433,1.756
			c0.293,0.549,0.731,1.045,1.317,1.484c0.588,0.439,1.713,1.037,3.376,1.788c0.817,0.366,1.369,0.731,1.658,1.088
			c0.277,0.354,0.418,0.766,0.418,1.237c0,0.56-0.22,1.046-0.656,1.459C303.148,110.093,302.625,110.299,302.018,110.299z"/>
	</g>
</g>
<g>
	<path fill="#FFCD61" d="M246.075,38.841c0.339,8.685-6.44,16.001-15.134,16.33c-8.679,0.327-15.987-6.438-16.316-15.135
		c-0.328-8.688,6.447-15.992,15.14-16.325C238.449,23.381,245.757,30.159,246.075,38.841z"/>
	<path fill="#FFCD61" d="M230.855,52.627c-7.266,0.271-13.409-5.413-13.686-12.682c-0.273-7.277,5.421-13.414,12.682-13.686
		c7.272-0.281,13.413,5.412,13.693,12.681C243.814,46.211,238.124,52.35,230.855,52.627z"/>
	<path fill="#F2B738" d="M230.776,50.718c-6.218,0.239-11.464-4.627-11.706-10.841c-0.23-6.22,4.639-11.482,10.856-11.714
		c6.225-0.241,11.475,4.623,11.71,10.853C241.868,45.237,236.996,50.492,230.776,50.718z"/>
	<g>
		<path fill="#FFFFFF" d="M230.681,44.422c-1.194,0-2.433-0.666-3.709-1.996l-1.992,1.996c0.754,0.793,1.573,1.428,2.453,1.906
			c0.644,0.347,1.423,0.572,2.339,0.674v0.951h1.969V46.94c0.971-0.196,1.716-0.487,2.232-0.869c0.518-0.383,0.939-0.902,1.27-1.558
			c0.328-0.655,0.492-1.368,0.492-2.14c0-0.772-0.153-1.469-0.461-2.091c-0.308-0.62-0.749-1.151-1.32-1.596
			c-0.573-0.444-1.636-0.98-3.188-1.609c-0.872-0.349-1.453-0.675-1.741-0.984c-0.293-0.301-0.44-0.604-0.44-0.91
			c0-0.36,0.166-0.681,0.5-0.957c0.329-0.277,0.763-0.418,1.295-0.418c0.9,0,1.812,0.467,2.734,1.395l2.024-1.927
			c-0.643-0.634-1.202-1.083-1.675-1.351c-0.471-0.267-1.044-0.479-1.723-0.636v-1.155h-1.969v1.025
			c-1.177,0.051-2.147,0.446-2.916,1.182c-0.769,0.734-1.153,1.617-1.153,2.647c0,0.62,0.146,1.208,0.434,1.756
			c0.293,0.55,0.731,1.046,1.317,1.485c0.588,0.439,1.712,1.036,3.375,1.787c0.817,0.367,1.37,0.732,1.658,1.088
			c0.277,0.354,0.418,0.766,0.418,1.238c0,0.559-0.219,1.045-0.656,1.458C231.812,44.216,231.289,44.422,230.681,44.422z"/>
	</g>
</g>
<g>
	<path fill="#FCC505" d="M228.509,28.904c0.339,8.685-6.441,16.001-15.134,16.33c-8.68,0.328-15.988-6.438-16.316-15.134
		c-0.329-8.688,6.447-15.993,15.139-16.326C220.882,13.445,228.189,20.223,228.509,28.904z"/>
	<path fill="#FFCD61" d="M213.289,42.69c-7.266,0.272-13.41-5.413-13.687-12.682c-0.272-7.276,5.421-13.413,12.682-13.686
		c7.273-0.28,13.414,5.413,13.693,12.681C226.247,36.274,220.558,42.414,213.289,42.69z"/>
	<path fill="#F2B738" d="M213.209,40.781c-6.217,0.239-11.463-4.627-11.706-10.84c-0.23-6.221,4.64-11.482,10.856-11.715
		c6.225-0.241,11.476,4.624,11.711,10.853C224.301,35.301,219.43,40.556,213.209,40.781z"/>
	<g>
		<path fill="#FFFFFF" d="M213.114,34.485c-1.195,0-2.433-0.665-3.71-1.995l-1.992,1.995c0.754,0.793,1.574,1.429,2.453,1.906
			c0.645,0.347,1.423,0.573,2.34,0.674v0.951h1.968v-1.013c0.971-0.195,1.716-0.486,2.232-0.869c0.519-0.382,0.939-0.902,1.27-1.557
			c0.329-0.655,0.493-1.369,0.493-2.141c0-0.772-0.154-1.469-0.462-2.09s-0.749-1.152-1.32-1.597
			c-0.573-0.444-1.636-0.979-3.187-1.608c-0.873-0.35-1.454-0.675-1.741-0.984c-0.293-0.302-0.44-0.604-0.44-0.91
			c0-0.361,0.166-0.682,0.5-0.958c0.328-0.277,0.763-0.417,1.294-0.417c0.9,0,1.813,0.466,2.735,1.395l2.023-1.928
			c-0.643-0.633-1.201-1.083-1.674-1.351c-0.471-0.267-1.045-0.479-1.724-0.635v-1.155h-1.968v1.025
			c-1.178,0.05-2.148,0.445-2.916,1.182c-0.77,0.733-1.153,1.617-1.153,2.646c0,0.621,0.146,1.208,0.433,1.756
			c0.293,0.55,0.731,1.046,1.317,1.485c0.588,0.439,1.712,1.036,3.376,1.788c0.817,0.366,1.369,0.731,1.657,1.088
			c0.278,0.354,0.419,0.765,0.419,1.237c0,0.56-0.22,1.046-0.656,1.458C214.244,34.279,213.722,34.485,213.114,34.485z"/>
	</g>
</g>
<g>
	<path fill="#FFCD61" d="M143.754,206.6c0.339,8.685-6.44,16.001-15.134,16.33c-8.679,0.327-15.987-6.438-16.316-15.135
		c-0.328-8.688,6.447-15.992,15.14-16.325C136.128,191.14,143.436,197.918,143.754,206.6z"/>
	<path fill="#FFCD61" d="M128.534,220.386c-7.266,0.271-13.409-5.413-13.686-12.682c-0.273-7.277,5.421-13.414,12.682-13.686
		c7.272-0.281,13.413,5.412,13.693,12.681C141.493,213.97,135.803,220.108,128.534,220.386z"/>
	<path fill="#F2B738" d="M128.455,218.477c-6.218,0.239-11.464-4.627-11.706-10.841c-0.23-6.22,4.639-11.482,10.856-11.714
		c6.225-0.241,11.475,4.623,11.71,10.853C139.547,212.996,134.675,218.251,128.455,218.477z"/>
	<g>
		<path fill="#FFFFFF" d="M128.359,212.181c-1.194,0-2.433-0.666-3.709-1.996l-1.992,1.996c0.754,0.793,1.573,1.428,2.453,1.906
			c0.644,0.347,1.423,0.572,2.339,0.674v0.951h1.969v-1.013c0.971-0.196,1.716-0.487,2.232-0.869
			c0.518-0.383,0.939-0.902,1.27-1.558c0.328-0.655,0.492-1.368,0.492-2.14c0-0.772-0.153-1.469-0.461-2.091
			c-0.308-0.62-0.749-1.151-1.32-1.596c-0.573-0.444-1.636-0.98-3.188-1.609c-0.872-0.349-1.453-0.675-1.741-0.984
			c-0.293-0.301-0.44-0.604-0.44-0.91c0-0.36,0.166-0.681,0.5-0.957c0.329-0.277,0.763-0.418,1.295-0.418
			c0.9,0,1.812,0.467,2.734,1.395l2.024-1.927c-0.643-0.634-1.202-1.083-1.675-1.351c-0.471-0.267-1.044-0.479-1.723-0.636v-1.155
			h-1.969v1.025c-1.177,0.051-2.147,0.446-2.916,1.182c-0.769,0.734-1.153,1.617-1.153,2.647c0,0.62,0.146,1.208,0.434,1.756
			c0.293,0.55,0.731,1.046,1.317,1.485c0.588,0.439,1.712,1.036,3.375,1.787c0.817,0.367,1.37,0.732,1.658,1.088
			c0.277,0.354,0.418,0.766,0.418,1.238c0,0.559-0.219,1.045-0.656,1.458C129.49,211.975,128.968,212.181,128.359,212.181z"/>
	</g>
</g>
<g>
	<path fill="#FFCD61" d="M126.188,196.663c0.339,8.685-6.441,16.001-15.134,16.33c-8.68,0.328-15.988-6.438-16.316-15.134
		c-0.329-8.688,6.447-15.993,15.139-16.326C118.561,181.204,125.868,187.981,126.188,196.663z"/>
	<path fill="#FFCD61" d="M110.968,210.449c-7.266,0.272-13.41-5.413-13.687-12.682c-0.272-7.276,5.421-13.413,12.682-13.686
		c7.273-0.28,13.414,5.413,13.693,12.681C123.926,204.033,118.236,210.173,110.968,210.449z"/>
	<path fill="#F2B738" d="M110.888,208.54c-6.217,0.239-11.463-4.627-11.706-10.84c-0.23-6.221,4.64-11.482,10.856-11.715
		c6.225-0.241,11.476,4.624,11.711,10.853C121.979,203.06,117.108,208.314,110.888,208.54z"/>
	<g>
		<path fill="#FFFFFF" d="M110.793,202.244c-1.195,0-2.433-0.665-3.71-1.995l-1.992,1.995c0.754,0.793,1.574,1.429,2.453,1.906
			c0.645,0.347,1.423,0.573,2.34,0.674v0.951h1.968v-1.013c0.971-0.195,1.716-0.486,2.232-0.869c0.519-0.382,0.939-0.902,1.27-1.557
			c0.329-0.655,0.493-1.369,0.493-2.141c0-0.772-0.154-1.469-0.462-2.09s-0.749-1.152-1.32-1.597
			c-0.573-0.444-1.636-0.979-3.187-1.608c-0.873-0.35-1.454-0.675-1.741-0.984c-0.293-0.302-0.44-0.604-0.44-0.91
			c0-0.361,0.166-0.682,0.5-0.958c0.328-0.277,0.763-0.417,1.294-0.417c0.9,0,1.813,0.466,2.735,1.395l2.023-1.928
			c-0.643-0.633-1.201-1.083-1.674-1.351c-0.471-0.267-1.045-0.479-1.724-0.635v-1.155h-1.968v1.025
			c-1.178,0.05-2.148,0.445-2.916,1.182c-0.77,0.733-1.153,1.617-1.153,2.646c0,0.621,0.146,1.208,0.433,1.756
			c0.293,0.55,0.731,1.046,1.317,1.485c0.588,0.439,1.712,1.036,3.376,1.788c0.817,0.366,1.369,0.731,1.657,1.088
			c0.278,0.354,0.419,0.765,0.419,1.237c0,0.56-0.22,1.046-0.656,1.458C111.923,202.038,111.4,202.244,110.793,202.244z"/>
	</g>
</g>
<rect x="178.88" y="80.76" fill="#566C81" width="40.183" height="3.94"/>
<rect x="178.88" y="87.607" fill="#566C81" width="33.904" height="3.939"/>
<rect x="178.88" y="94.453" fill="#566C81" width="32.719" height="3.94"/>
<rect x="38.701" y="182.565" fill="#566C81" width="33.904" height="3.939"/>
<rect x="38.701" y="189.411" fill="#566C81" width="27.251" height="3.94"/>
<g>
	<g>
		<path fill="#2D3E50" d="M211.833,93.368c7.435-2.041,15.567-1.775,23.281,1.283c18.905,7.489,28.161,28.885,20.67,47.792
			c-4.434,11.183-13.731,18.987-24.507,21.944l-1.813-6.621c8.767-2.408,16.335-8.758,19.942-17.857l0,0
			c6.091-15.372-1.439-32.781-16.824-38.876c-6.274-2.486-12.89-2.7-18.937-1.044L211.833,93.368z M187.33,115.311
			c4.429-11.184,13.731-18.985,24.503-21.942l1.812,6.621c-8.764,2.405-16.333,8.754-19.938,17.853
			c-6.091,15.373,1.438,32.792,16.813,38.884c6.278,2.487,12.896,2.703,18.942,1.041l1.813,6.621
			c-7.433,2.043-15.568,1.777-23.289-1.281C189.09,155.618,179.837,134.222,187.33,115.311z"/>
		
			<rect x="263.761" y="129.661" transform="matrix(-0.3679 0.9299 -0.9299 -0.3679 504.8236 -48.0333)" fill="#013C5C" width="9.955" height="35.823"/>
		<path fill="#013C5C" d="M298.495,167.925c4.088,1.624,8.72-0.382,10.335-4.469c1.621-4.083-0.38-8.711-4.472-10.329
			l-31.455-12.464c-4.086-1.618-8.712,0.379-10.334,4.462c-1.617,4.089,0.384,8.719,4.471,10.337L298.495,167.925z"/>
	</g>
	<g>
		<polygon fill="#FFCD61" points="283.419,159.09 287.319,149.232 264.76,140.296 260.853,150.147 		"/>
		<path fill="#FFCD61" d="M299.322,168.806c4.353,1.729,9.282-0.407,11.004-4.758c1.727-4.347-0.404-9.272-4.763-10.999
			l-33.488-13.269c-2.484-0.983-5.158-0.71-7.318,0.517l-3.902,9.848c0.732,2.377,2.493,4.406,4.979,5.393L299.322,168.806z"/>
	</g>
</g>
<g>
	
		<line fill="#FFFFFF" stroke="#FFFFFF" stroke-linecap="round" stroke-miterlimit="10" x1="76.912" y1="103.193" x2="82.275" y2="103.193"/>
	
		<line fill="#FFFFFF" stroke="#FFFFFF" stroke-linecap="round" stroke-miterlimit="10" x1="66.428" y1="107.445" x2="76.158" y2="107.445"/>
</g>
<g>
	
		<line fill="#FFFFFF" stroke="#FFFFFF" stroke-linecap="round" stroke-miterlimit="10" x1="255.834" y1="172.256" x2="261.197" y2="172.256"/>
	
		<line fill="#FFFFFF" stroke="#FFFFFF" stroke-linecap="round" stroke-miterlimit="10" x1="245.35" y1="176.508" x2="255.08" y2="176.508"/>
</g>
<g>
	
		<line fill="#FFFFFF" stroke="#FFFFFF" stroke-linecap="round" stroke-miterlimit="10" x1="311.003" y1="136.222" x2="316.366" y2="136.222"/>
	
		<line fill="#FFFFFF" stroke="#FFFFFF" stroke-linecap="round" stroke-miterlimit="10" x1="300.519" y1="140.474" x2="310.249" y2="140.474"/>
</g>
<g>
	
		<line fill="#FFFFFF" stroke="#FFFFFF" stroke-linecap="round" stroke-miterlimit="10" x1="23.097" y1="214.818" x2="28.46" y2="214.818"/>
	
		<line fill="#FFFFFF" stroke="#FFFFFF" stroke-linecap="round" stroke-miterlimit="10" x1="12.612" y1="219.07" x2="22.343" y2="219.07"/>
</g>
<g>
	
		<line fill="#FFFFFF" stroke="#FFFFFF" stroke-linecap="round" stroke-miterlimit="10" x1="248.964" y1="17.78" x2="254.327" y2="17.78"/>
	
		<line fill="#FFFFFF" stroke="#FFFFFF" stroke-linecap="round" stroke-miterlimit="10" x1="238.479" y1="22.032" x2="248.21" y2="22.032"/>
</g>
<g>
	
		<line fill="#FFFFFF" stroke="#FFFFFF" stroke-linecap="round" stroke-miterlimit="10" x1="250.707" y1="200.523" x2="229.249" y2="200.523"/>
	
		<line fill="#FFFFFF" stroke="#FFFFFF" stroke-linecap="round" stroke-miterlimit="10" x1="245.934" y1="195.254" x2="224.474" y2="195.254"/>
	
		<line fill="#FFFFFF" stroke="#FFFFFF" stroke-linecap="round" stroke-miterlimit="10" x1="233.813" y1="205.208" x2="212.355" y2="205.208"/>
	
		<line fill="#FFFFFF" stroke="#FFFFFF" stroke-linecap="round" stroke-miterlimit="10" x1="227.033" y1="200.523" x2="221.2" y2="200.523"/>
	
		<line fill="#FFFFFF" stroke="#FFFFFF" stroke-linecap="round" stroke-miterlimit="10" x1="214.129" y1="195.254" x2="202.816" y2="195.254"/>
</g>
<g>
	
		<line fill="#FFFFFF" stroke="#FFFFFF" stroke-linecap="round" stroke-miterlimit="10" x1="56.614" y1="25.762" x2="38.999" y2="25.762"/>
	
		<line fill="#FFFFFF" stroke="#FFFFFF" stroke-linecap="round" stroke-miterlimit="10" x1="52.695" y1="20.492" x2="35.078" y2="20.492"/>
	
		<line fill="#FFFFFF" stroke="#FFFFFF" stroke-linecap="round" stroke-miterlimit="10" x1="42.746" y1="30.446" x2="25.13" y2="30.446"/>
	
		<line fill="#FFFFFF" stroke="#FFFFFF" stroke-linecap="round" stroke-miterlimit="10" x1="37.18" y1="25.762" x2="32.391" y2="25.762"/>
	
		<line fill="#FFFFFF" stroke="#FFFFFF" stroke-linecap="round" stroke-miterlimit="10" x1="26.586" y1="20.492" x2="17.299" y2="20.492"/>
</g>
<g>
	
		<line fill="#FFFFFF" stroke="#FFFFFF" stroke-linecap="round" stroke-miterlimit="10" x1="122.448" y1="42.697" x2="140.399" y2="42.697"/>
	
		<line fill="#FFFFFF" stroke="#FFFFFF" stroke-linecap="round" stroke-miterlimit="10" x1="128.12" y1="47.382" x2="132.999" y2="47.382"/>
	
		<line fill="#FFFFFF" stroke="#FFFFFF" stroke-linecap="round" stroke-miterlimit="10" x1="138.915" y1="52.651" x2="148.38" y2="52.651"/>
</g>
<g>
	
		<line fill="#FFFFFF" stroke="#FFFFFF" stroke-linecap="round" stroke-miterlimit="10" x1="249.043" y1="82.63" x2="266.994" y2="82.63"/>
	
		<line fill="#FFFFFF" stroke="#FFFFFF" stroke-linecap="round" stroke-miterlimit="10" x1="254.715" y1="87.314" x2="259.594" y2="87.314"/>
	
		<line fill="#FFFFFF" stroke="#FFFFFF" stroke-linecap="round" stroke-miterlimit="10" x1="265.51" y1="92.584" x2="274.975" y2="92.584"/>
</g>
<g>
	
		<line fill="#FFFFFF" stroke="#FFFFFF" stroke-linecap="round" stroke-miterlimit="10" x1="156.044" y1="205.198" x2="173.995" y2="205.198"/>
	
		<line fill="#FFFFFF" stroke="#FFFFFF" stroke-linecap="round" stroke-miterlimit="10" x1="161.716" y1="209.883" x2="166.596" y2="209.883"/>
	
		<line fill="#FFFFFF" stroke="#FFFFFF" stroke-linecap="round" stroke-miterlimit="10" x1="172.512" y1="215.152" x2="181.976" y2="215.152"/>
</g>
</svg>
